<svg xmlns="http://www.w3.org/2000/svg" viewBox="0 0 212.55864 212.55873" height="212.559" width="212.559">
  <path d="M207.765 207.765H4.793V4.793h202.972v202.972z" fill="#fff" stroke="#fff" stroke-width="9.586"/>
  <path d="M38.617 4.856H4.795v33.798h6.695v-27.08h27.127V4.856zM4.837 173.964v33.823h33.8v-6.695H11.552v-27.128H4.836zM173.95 207.8h33.822v-33.798h-6.694v27.08H173.95v6.718zm33.782-169.107V4.87h-33.8v6.694h27.082v27.13h6.718zM32.84 29.013h97.288c16.923 0 30.034 4.56 39.335 13.67 9.293 9.11 13.946 22.022 13.946 38.747 0 8.714-1.54 17.45-4.6 26.207-3.068 8.76-9.52 16.375-19.37 22.838-9.85 6.472-22.22 9.702-37.11 9.702H81.62v43.855H32.84V29.014m48.786 35.648v39.398h35.838c7.087 0 12.74-1.815 16.945-5.468 4.2-3.64 6.31-8.757 6.31-15.352 0-6.23-1.62-10.883-4.85-13.963-3.24-3.076-8.09-4.615-14.558-4.615h-39.69z" fill="#ff3a28"/>
</svg>
